<?xml version="1.0" encoding="UTF-8" standalone="no"?>
<!-- Created with Inkscape (http://www.inkscape.org/) -->

<svg
   width="300"
   height="300"
   viewBox="0 0 300 300"
   version="1.1"
   id="svg1"
   xmlns:inkscape="http://www.inkscape.org/namespaces/inkscape"
   xmlns:sodipodi="http://sodipodi.sourceforge.net/DTD/sodipodi-0.dtd"
   xmlns="http://www.w3.org/2000/svg"
   xmlns:svg="http://www.w3.org/2000/svg">
  <sodipodi:namedview
     id="namedview1"
     pagecolor="#505050"
     bordercolor="#eeeeee"
     borderopacity="1"
     inkscape:showpageshadow="0"
     inkscape:pageopacity="0"
     inkscape:pagecheckerboard="0"
     inkscape:deskcolor="#505050"
     inkscape:document-units="px" />
  <defs
     id="defs1" />
  <g
     inkscape:label="Layer 1"
     inkscape:groupmode="layer"
     id="layer1">
    <path
       id="path1"
       style="fill:#0088cc;fill-opacity:1"
       d="M 150.18555,2.5429688 A 147.45763,147.45763 0 0 0 2.7285156,150 147.45763,147.45763 0 0 0 38.460938,246.18359 c 40.32683,-9.85921 70.834282,-19.71696 91.279292,-29.57617 21.94819,-10.0136 36.89138,-21.58186 44.83008,-34.70312 7.93871,-12.77597 11.90821,-29.69473 11.90821,-50.75782 0,-23.79793 -4.57515,-66.212203 -13.62891,-126.8300738 A 147.45763,147.45763 0 0 0 150.18555,2.5429688 Z m 88.1875,29.2871092 c 2.62903,41.749893 4.14453,69.617402 4.14453,78.597652 0,32.80317 -5.83716,60.60106 -17.51172,83.39063 -11.67457,23.13486 -31.05564,42.64371 -58.14063,58.52734 -20.61813,12.09124 -46.8201,22.5712 -78.533199,31.46094 A 147.45763,147.45763 0 0 0 150.18555,297.45703 147.45763,147.45763 0 0 0 297.64453,150 147.45763,147.45763 0 0 0 238.37305,31.830078 Z" />
    <path
       id="path3"
       style="fill:#0088cc;fill-opacity:1"
       d="M 150.18555,2.5429688 A 147.45763,147.45763 0 0 0 2.7285156,150 147.45763,147.45763 0 0 0 38.460938,246.18359 c 40.32683,-9.85921 70.834282,-19.71696 91.279292,-29.57617 21.94819,-10.0136 36.89138,-21.58186 44.83008,-34.70312 7.93871,-12.77597 11.90821,-29.69473 11.90821,-50.75782 0,-23.79793 -4.57515,-66.212203 -13.62891,-126.8300738 A 147.45763,147.45763 0 0 0 150.18555,2.5429688 Z m 88.1875,29.2871092 c 2.62903,41.749893 4.14453,69.617402 4.14453,78.597652 0,32.80317 -5.83716,60.60106 -17.51172,83.39063 -11.67457,23.13486 -31.05564,42.64371 -58.14063,58.52734 -20.61813,12.09124 -46.8201,22.5712 -78.533199,31.46094 A 147.45763,147.45763 0 0 0 150.18555,297.45703 147.45763,147.45763 0 0 0 297.64453,150 147.45763,147.45763 0 0 0 238.37305,31.830078 Z" />
  </g>
</svg>
